<?xml version="1.0" standalone="no"?><!DOCTYPE svg PUBLIC "-//W3C//DTD SVG 1.1//EN" "http://www.w3.org/Graphics/SVG/1.1/DTD/svg11.dtd"><svg t="1624704599537" class="icon" viewBox="0 0 1024 1024" version="1.1" xmlns="http://www.w3.org/2000/svg" p-id="24081" xmlns:xlink="http://www.w3.org/1999/xlink" width="48" height="48"><defs><style type="text/css"></style></defs><path d="M947.105535 300.08445c-0.55752-14.541288-12.512299-26.158905-27.189656-26.158905L383.953339 273.925545c-15.027764 0-27.210126 12.184771-27.210126 27.21133l0 5.442748c0 15.031376 12.182363 27.214943 27.210126 27.214943l492.697512 0-47.497607 181.054448-466.326677 35.883602-99.066437-309.45874 0-0.003612c0-15.031376-12.183567-27.216147-27.213739-27.216147L104.256314 214.054116c-15.031376 0-27.214943 12.184771-27.214943 27.216147l0 5.442748c0 15.026559 12.182363 27.213739 27.214943 27.213739l104.949903 0 120.891615 377.624339c-21.484404 16.407717-35.344144 42.28726-35.344144 71.402348 0 49.596436 40.210105 89.805337 89.807746 89.805337l6.348267 0c49.597641 0 89.807746-40.208901 89.807746-89.805337 0-10.495352-1.809834-20.570456-5.118832-29.933908l227.945164 0c-3.308998 9.363453-5.118832 19.439761-5.118832 29.933908 0 49.596436 40.208901 89.805337 89.806541 89.805337l7.105676 0c49.601253 0 89.810154-40.208901 89.810154-89.805337s-40.208901-89.805337-89.810154-89.805337l-0.150518 0-6.955157 0L390.904884 633.148098l-1.69544 0-7.621051-23.802388 467.158743-35.947422c14.470243 2.159037 28.940486-5.812421 34.003928-19.599913l0.594849-2.266206c0.237217-0.770655 0.440718-1.552146 0.611707-2.340863l60.637267-231.134952c1.346237-2.893567 2.198774-6.066496 2.448032-9.405598C947.500495 305.768028 947.505312 302.887706 947.105535 300.08445L947.105535 300.08445zM790.349584 693.018323l2.116892 0c16.531744 0 29.933908 13.405777 29.933908 29.937521 0 16.532948-13.402164 29.933908-29.933908 29.933908l-2.116892 0c-16.531744 0-29.937521-13.40096-29.937521-29.933908C760.412063 706.4241 773.81784 693.018323 790.349584 693.018323L790.349584 693.018323zM388.789197 693.018323c16.536561 0 29.938725 13.405777 29.938725 29.937521 0 16.532948-13.402164 29.933908-29.938725 29.933908l-2.112075 0c-16.531744 0-29.937521-13.40096-29.937521-29.933908 0-16.531744 13.405777-29.937521 29.937521-29.937521L388.789197 693.018323 388.789197 693.018323zM388.789197 693.018323" p-id="24082"></path></svg>